<svg width="22" height="22" viewBox="0 0 22 22" fill="none" xmlns="http://www.w3.org/2000/svg">
<path d="M0.528556 1.58565L19.5563 20.6134C19.8482 20.9053 20.3214 20.9053 20.6134 20.6134C20.9053 20.3215 20.9053 19.8482 20.6134 19.5563L1.58565 0.52856C1.29374 0.236652 0.820465 0.236652 0.528557 0.52856C0.236648 0.820469 0.236648 1.29375 0.528556 1.58565Z" fill="white"/>
<path d="M19.557 0.528771L0.52928 19.5565C0.237371 19.8484 0.237371 20.3217 0.52928 20.6136C0.821188 20.9055 1.29447 20.9055 1.58637 20.6136L20.6141 1.58587C20.906 1.29396 20.906 0.82068 20.6141 0.528772C20.3222 0.236863 19.8489 0.236863 19.557 0.528771Z" fill="white"/>
</svg>
