<svg width="172" height="32" viewBox="0 0 172 32" fill="none" xmlns="http://www.w3.org/2000/svg">
<path d="M27.4488 0L26.7876 1.50892C25.6517 3.95032 23.1424 8.79921 19.989 11.6645C16.0556 15.2248 15.2079 15.8182 11.3593 17.7001C11.1897 17.7849 11.0033 17.8697 10.8168 17.9545L2.88221 0H0L8.39231 18.8022C4.37417 19.9211 0 20.0229 0 20.0229V22.3795C0 22.3795 4.6624 22.3456 9.3587 20.9723L14.1228 31.6365H16.2082L30.331 0.0169542H27.4488V0ZM15.157 27.7879L11.7662 20.1246C12.1731 19.9551 12.58 19.7855 12.9699 19.5821C16.7677 17.7171 19.2091 15.7674 21.4301 13.5972L15.157 27.7879Z" fill="white"/>
<path d="M103.522 0L102.861 1.50892C101.725 3.95032 99.2159 8.79921 96.0624 11.6645C92.1291 15.2418 91.2814 15.8352 87.4328 17.7171C87.2632 17.8019 87.0767 17.8866 86.8902 17.9714L78.9557 0H76.0735L84.4658 18.8022C80.4477 19.9211 76.0735 20.0229 76.0735 20.0229V22.3795C76.0735 22.3795 80.7359 22.3456 85.4322 20.9723L90.1963 31.6365H92.2817L106.404 0.0169542H103.522V0ZM91.2475 27.7879L87.8566 20.1246C88.2635 19.9551 88.6704 19.7855 89.0604 19.5821C92.8581 17.7171 95.2995 15.7674 97.5205 13.5972L91.2475 27.7879Z" fill="white"/>
<path d="M66.9181 0.0170898L53.1853 23.7699L39.4863 0.0170898H36.8584V31.6197H39.4863V5.23897L52.6936 27.9067H53.8634L66.9181 5.25593V31.6027H69.546V0.0170898H66.9181Z" fill="white"/>
<path d="M136.566 0.0170898V27.7032L115.559 0.0170898H112.915V31.6197H115.542V4.32345L136.566 31.6197H139.194V0.0170898H136.566Z" fill="white"/>
<path d="M169.372 0.0170898V27.7032L148.366 0.0170898H145.721V31.6197H148.349V4.32345L169.372 31.6197H172V0.0170898H169.372Z" fill="white"/>
</svg>
