<svg width="184" height="32" viewBox="0 0 184 32" fill="none" xmlns="http://www.w3.org/2000/svg">
<path d="M40.584 4.2271C40.4621 4.56222 40.3403 4.77548 40.3098 4.98874C40.2184 5.93316 40.127 6.87759 40.0356 7.82202C39.8833 9.25389 39.7614 10.6858 39.6091 12.1176C39.6091 12.1786 39.6091 12.27 39.5786 12.3309C39.4872 13.9151 39.4263 15.4993 39.3045 17.114C39.2131 18.424 39.0303 19.734 38.9084 21.0745C38.817 22.0798 38.7561 23.1156 38.6647 24.121C38.4819 26.284 38.2686 28.4166 38.0858 30.7015C37.8726 30.9452 37.5375 31.0976 37.05 30.8843C36.7454 30.3969 36.8977 29.879 36.9282 29.361C36.9586 28.9345 37.05 28.5385 37.0805 28.112C37.2328 26.802 37.3547 25.4919 37.4765 24.1515C37.5679 22.9938 37.6289 21.8056 37.7507 20.6479C37.8726 19.2161 38.0249 17.7842 38.1772 16.3523C38.1772 16.2305 38.2077 16.1391 38.2077 16.0172C38.2991 14.5549 38.36 13.0621 38.4819 11.5997C38.6647 9.40622 38.9084 7.24317 39.1217 5.04967C39.2131 3.92245 39.3045 2.79523 39.3654 1.63754C39.3958 1.18056 39.3958 0.723582 40.0356 0.479858C41.1019 2.24685 41.7721 4.2271 42.7166 6.08549C43.661 7.94388 44.4836 9.8632 45.3671 11.7521C46.281 13.6714 47.195 15.5907 48.0785 17.51C48.962 19.3989 49.8455 21.2877 50.729 23.207C51.6125 25.0959 52.496 26.9847 53.3795 28.8736C53.8669 28.7517 53.9583 28.3252 54.1411 27.9596C55.1769 25.7966 56.1823 23.6336 57.1876 21.4705C57.7969 20.1605 58.4063 18.8505 59.046 17.5405C60.5388 14.433 62.0012 11.2951 63.494 8.1876C64.5907 5.9027 65.6875 3.61779 66.8147 1.33289C66.9366 1.08917 67.0889 0.875908 67.1803 0.723582C67.5763 0.60172 67.7591 0.784512 67.8505 1.0587C67.881 1.1501 67.881 1.27196 67.881 1.39382C67.9724 2.82569 68.0333 4.25757 68.1552 5.7199C68.277 7.12131 68.4294 8.49226 68.5512 9.89366C68.5512 9.92413 68.5512 9.95459 68.5512 10.0155C68.6426 11.4779 68.7036 12.9707 68.8254 14.433C68.9473 15.8649 69.0996 17.2968 69.2215 18.7286C69.2215 18.7896 69.2519 18.881 69.2519 18.9419C69.3433 20.4042 69.4043 21.897 69.5261 23.3594C69.5871 24.2733 69.7089 25.1568 69.7698 26.0708C69.8917 27.5027 70.0136 28.9041 70.1354 30.3359C70.1354 30.5187 70.105 30.7015 70.105 30.9148C69.7089 31.0671 69.3738 31.128 68.9473 30.8539C68.9168 30.6711 68.8559 30.4578 68.8254 30.2445C68.6731 28.051 68.4903 25.8575 68.338 23.664C68.1856 21.7142 68.0333 19.734 67.881 17.7842C67.7287 15.7735 67.5763 13.7932 67.424 11.7825C67.2717 9.74134 67.1194 7.70016 66.967 5.65897C66.9366 5.29339 66.8147 4.95827 66.6014 4.62315C65.0172 7.54783 63.6463 10.5639 62.2449 13.519C60.813 16.5047 59.4421 19.4903 57.9797 22.4454C56.5479 25.4005 55.2074 28.4166 53.6537 31.3413C52.9834 31.0671 52.8311 30.5492 52.6178 30.1531C51.2469 27.198 49.9064 24.2124 48.5355 21.2573C47.591 19.2161 46.5857 17.2054 45.6413 15.1946C44.3922 12.5137 43.1736 9.83273 41.9245 7.15178C41.5589 6.17689 41.0714 5.26292 40.584 4.2271Z" fill="white"/>
<path d="M183.92 31.4022C183.584 31.4936 183.432 31.5241 183.158 31.585C182.457 30.7929 181.756 30.0008 181.086 29.1782C179.776 27.594 178.497 26.0098 177.217 24.4256C176.212 23.1766 175.206 21.9579 174.232 20.7089C173.378 19.6426 172.525 18.5763 171.672 17.51C170.21 15.6821 168.717 13.8541 167.255 12.0262C166.432 10.9904 165.549 9.98504 164.726 8.94921C163.63 7.60874 162.533 6.2378 161.436 4.89732C161.223 4.62313 160.918 4.40987 160.461 3.98336C160.461 4.6536 160.461 5.04965 160.461 5.47616C160.461 11.4778 160.461 17.51 160.431 23.5117C160.431 25.4919 160.309 27.4722 160.278 29.422C160.278 30.0008 160.278 30.5492 160.278 31.1889C159.974 31.4936 159.974 31.4936 159.334 31.3717C159.09 30.5187 158.907 21.8665 159.212 16.4742C159.486 11.5083 159.212 6.51198 159.395 1.45473C159.639 1.42426 159.821 1.42426 160.065 1.3938C167.499 10.5639 174.932 19.673 182.366 28.7822C182.488 28.6908 182.549 28.6908 182.549 28.6603C182.579 28.6299 182.61 28.5994 182.61 28.5689C182.64 28.508 182.64 28.4166 182.64 28.3557C182.64 28.3252 182.64 28.2947 182.64 28.2338C182.64 28.1729 182.64 28.0815 182.64 28.0205C182.67 19.277 182.67 10.5029 182.701 1.75938C182.701 1.72892 182.731 1.69845 182.762 1.51566C183.066 1.4852 183.432 1.42426 183.737 1.3938C184.102 1.82031 183.98 2.2773 183.98 2.67335C183.98 10.8685 183.95 19.0333 183.95 27.2284C183.92 28.5689 183.92 29.9094 183.92 31.4022Z" fill="white"/>
<path d="M119.15 1.24148C119.577 1.08915 119.82 1.30241 120.003 1.54614C121.953 3.9529 123.903 6.39013 125.883 8.7969C127.924 11.2951 129.965 13.7932 132.007 16.2914C133.53 18.1802 135.053 20.0691 136.576 21.9579C138.008 23.7249 139.471 25.4615 140.902 27.2285C141.268 27.6854 141.664 28.1424 142.182 28.7822C142.304 28.3557 142.395 28.1424 142.395 27.9292C142.426 26.1012 142.395 24.2733 142.395 22.4454C142.395 15.8344 142.395 9.19295 142.426 2.58196C142.426 2.24684 142.426 1.91172 142.426 1.60707C142.852 1.33288 143.218 1.18055 143.614 1.4852C143.705 2.03358 143.797 30.5187 143.675 31.128C143.644 31.2499 143.522 31.3718 143.462 31.4632C143.035 31.5545 142.73 31.3413 142.517 31.0671C141.116 29.361 139.745 27.655 138.343 25.9489C137.46 24.8522 136.576 23.7859 135.693 22.6891C134.962 21.7752 134.231 20.8612 133.499 19.9472C132.311 18.4849 131.093 17.0226 129.904 15.5297C128.747 14.1283 127.589 12.7269 126.462 11.2951C125.304 9.89365 124.177 8.46178 123.019 7.06037C122.532 6.45106 122.044 5.81129 121.526 5.20198C121.161 4.77547 120.765 4.37942 120.216 3.77011C120.186 4.40988 120.186 4.8364 120.186 5.23245C120.186 8.33992 120.277 11.4779 120.156 14.5853C119.912 19.9168 120.064 25.2177 120.003 30.5492C120.003 30.7624 119.973 30.9757 119.942 31.2499C119.607 31.2499 119.302 31.2499 118.967 31.2499C118.937 31.0671 118.876 30.8843 118.876 30.7015C118.876 27.7464 118.876 24.7608 118.876 21.8056C118.876 17.9974 118.876 14.1893 118.906 10.3811C118.937 7.45642 119.028 4.53174 119.089 1.60707C119.059 1.4852 119.089 1.39381 119.15 1.24148Z" fill="white"/>
<path d="M81.9214 30.9452C81.5863 31.0671 81.3426 31.1585 81.0989 31.2803C80.9466 31.1585 80.8552 31.0671 80.6724 30.9452C80.977 30.214 81.2207 29.4524 81.5254 28.7212C83.1401 25.0349 84.8157 21.3791 86.4303 17.6928C87.6185 14.9813 88.7152 12.2395 89.9034 9.52804C90.8478 7.33453 91.8227 5.17149 92.7976 2.97798C93.0413 2.46007 93.2241 1.9117 93.4678 1.42425C93.5897 1.18053 93.7725 0.997734 93.8944 0.814941C94.4732 0.906338 94.5646 1.33285 94.7169 1.69844C96.4839 5.8722 98.2204 10.0155 99.9874 14.1892C101.297 17.2358 102.668 20.2823 103.978 23.3593C105.045 25.8575 106.081 28.3861 107.147 30.8843C106.903 31.3717 106.537 31.2803 106.05 31.2194C105.867 30.8843 105.654 30.5492 105.502 30.1531C104.283 27.2284 103.095 24.2733 101.846 21.3181C100.14 17.3272 98.4032 13.3362 96.6972 9.31479C95.9355 7.54779 95.2044 5.75033 94.4427 3.95288C94.3513 3.70915 94.2295 3.4959 94.0162 3.06938C89.9034 12.4223 85.9733 21.6837 81.9214 30.9452Z" fill="white"/>
<path d="M1.21862 30.6711C0.883496 30.732 0.517912 30.7929 0 30.8843C0.0913962 30.4273 0.0913962 30.1531 0.213258 29.879C1.6756 26.5278 3.1684 23.207 4.60027 19.8863C5.75796 17.2358 6.85471 14.5853 8.0124 11.9348C9.07869 9.49761 10.145 7.09085 11.2113 4.65362C11.6987 3.5264 12.1557 2.42964 12.6431 1.30242C12.765 0.99777 12.9783 0.723582 13.1306 0.479858C13.6485 0.510324 13.8008 0.814978 13.9227 1.1501C14.928 3.58733 15.9334 6.05502 16.9692 8.49226C17.9746 10.8381 18.9799 13.1535 19.9853 15.4993C20.9297 17.7233 21.8741 19.9777 22.849 22.2017C23.8849 24.6389 24.9512 27.0761 25.987 29.5134C26.1393 29.879 26.2307 30.275 26.4135 30.7625C26.0479 30.8843 25.7737 30.9757 25.53 31.0671C25.3777 30.8843 25.2558 30.7929 25.1949 30.6406C24.5246 29.1173 23.8239 27.5941 23.1537 26.0708C21.9351 23.2375 20.7469 20.4042 19.5588 17.6014C18.919 16.0781 18.2792 14.5244 17.6395 12.9707C16.6036 10.5334 15.5678 8.09621 14.5015 5.62851C14.1359 4.74501 13.7704 3.89198 13.3743 2.88662C13.1915 3.13035 13.0087 3.25221 12.9173 3.435C12.7345 3.80059 12.6127 4.19664 12.4299 4.59269C11.1199 7.60876 9.77939 10.6248 8.46938 13.6714C7.52495 15.8953 6.61099 18.1498 5.6361 20.3738C4.7526 22.4759 3.80817 24.5475 2.89421 26.6192C2.3763 27.9292 1.82792 29.2087 1.21862 30.6711Z" fill="white"/>
</svg>
